<svg width="245" height="180" viewBox="0 0 245 180" fill="none"
    xmlns="http://www.w3.org/2000/svg">
    <path fill-rule="evenodd" clip-rule="evenodd" d="M237.197 3.90127C237.197 6.05589 238.944 7.80255 241.099 7.80255C243.253 7.80255 245 6.05589 245 3.90127C245 1.74666 243.253 0 241.099 0C238.944 0 237.197 1.74666 237.197 3.90127Z" fill="#C92071"/>
    <path fill-rule="evenodd" clip-rule="evenodd" d="M237.197 72.5637C237.197 74.7183 238.944 76.465 241.099 76.465C243.253 76.465 245 74.7183 245 72.5637C245 70.4091 243.253 68.6624 241.099 68.6624C238.944 68.6624 237.197 70.4091 237.197 72.5637Z" fill="#C92071"/>
    <path fill-rule="evenodd" clip-rule="evenodd" d="M237.197 141.226C237.197 143.381 238.944 145.127 241.099 145.127C243.253 145.127 245 143.381 245 141.226C245 139.071 243.253 137.325 241.099 137.325C238.944 137.325 237.197 139.071 237.197 141.226Z" fill="#C92071"/>
    <path fill-rule="evenodd" clip-rule="evenodd" d="M237.197 38.2325C237.197 40.3871 238.944 42.1338 241.099 42.1338C243.253 42.1338 245 40.3871 245 38.2325C245 36.0779 243.253 34.3312 241.099 34.3312C238.944 34.3312 237.197 36.0779 237.197 38.2325Z" fill="#C92071"/>
    <path fill-rule="evenodd" clip-rule="evenodd" d="M237.197 106.895C237.197 109.05 238.944 110.796 241.099 110.796C243.253 110.796 245 109.05 245 106.895C245 104.74 243.253 102.994 241.099 102.994C238.944 102.994 237.197 104.74 237.197 106.895Z" fill="#C92071"/>
    <path fill-rule="evenodd" clip-rule="evenodd" d="M237.197 175.557C237.197 177.712 238.944 179.459 241.099 179.459C243.253 179.459 245 177.712 245 175.557C245 173.403 243.253 171.656 241.099 171.656C238.944 171.656 237.197 173.403 237.197 175.557Z" fill="#C92071"/>
    <path fill-rule="evenodd" clip-rule="evenodd" d="M148.248 3.90127C148.248 6.05589 149.995 7.80255 152.15 7.80255C154.304 7.80255 156.051 6.05589 156.051 3.90127C156.051 1.74666 154.304 0 152.15 0C149.995 0 148.248 1.74666 148.248 3.90127Z" fill="#C92071"/>
    <path fill-rule="evenodd" clip-rule="evenodd" d="M148.248 72.5637C148.248 74.7183 149.995 76.465 152.15 76.465C154.304 76.465 156.051 74.7183 156.051 72.5637C156.051 70.4091 154.304 68.6624 152.15 68.6624C149.995 68.6624 148.248 70.4091 148.248 72.5637Z" fill="#C92071"/>
    <path fill-rule="evenodd" clip-rule="evenodd" d="M148.248 141.226C148.248 143.381 149.995 145.127 152.15 145.127C154.304 145.127 156.051 143.381 156.051 141.226C156.051 139.071 154.304 137.325 152.15 137.325C149.995 137.325 148.248 139.071 148.248 141.226Z" fill="#C92071"/>
    <path fill-rule="evenodd" clip-rule="evenodd" d="M148.248 38.2325C148.248 40.3871 149.995 42.1338 152.15 42.1338C154.304 42.1338 156.051 40.3871 156.051 38.2325C156.051 36.0779 154.304 34.3312 152.15 34.3312C149.995 34.3312 148.248 36.0779 148.248 38.2325Z" fill="#C92071"/>
    <path fill-rule="evenodd" clip-rule="evenodd" d="M148.248 106.895C148.248 109.05 149.995 110.796 152.15 110.796C154.304 110.796 156.051 109.05 156.051 106.895C156.051 104.74 154.304 102.994 152.15 102.994C149.995 102.994 148.248 104.74 148.248 106.895Z" fill="#C92071"/>
    <path fill-rule="evenodd" clip-rule="evenodd" d="M148.248 175.557C148.248 177.712 149.995 179.459 152.15 179.459C154.304 179.459 156.051 177.712 156.051 175.557C156.051 173.403 154.304 171.656 152.15 171.656C149.995 171.656 148.248 173.403 148.248 175.557Z" fill="#C92071"/>
    <path fill-rule="evenodd" clip-rule="evenodd" d="M59.2994 3.90127C59.2994 6.05589 61.046 7.80255 63.2007 7.80255C65.3553 7.80255 67.1019 6.05589 67.1019 3.90127C67.1019 1.74666 65.3553 0 63.2007 0C61.046 0 59.2994 1.74666 59.2994 3.90127Z" fill="#C92071"/>
    <path fill-rule="evenodd" clip-rule="evenodd" d="M59.2994 72.5637C59.2994 74.7183 61.046 76.465 63.2006 76.465C65.3553 76.465 67.1019 74.7183 67.1019 72.5637C67.1019 70.4091 65.3553 68.6624 63.2006 68.6624C61.046 68.6624 59.2994 70.4091 59.2994 72.5637Z" fill="#C92071"/>
    <path fill-rule="evenodd" clip-rule="evenodd" d="M59.2994 141.226C59.2994 143.381 61.046 145.127 63.2006 145.127C65.3553 145.127 67.1019 143.381 67.1019 141.226C67.1019 139.071 65.3553 137.325 63.2006 137.325C61.046 137.325 59.2994 139.071 59.2994 141.226Z" fill="#C92071"/>
    <path fill-rule="evenodd" clip-rule="evenodd" d="M59.2994 38.2325C59.2994 40.3871 61.046 42.1338 63.2006 42.1338C65.3553 42.1338 67.1019 40.3871 67.1019 38.2325C67.1019 36.0779 65.3553 34.3312 63.2006 34.3312C61.046 34.3312 59.2994 36.0779 59.2994 38.2325Z" fill="#C92071"/>
    <path fill-rule="evenodd" clip-rule="evenodd" d="M59.2994 106.895C59.2994 109.05 61.046 110.796 63.2006 110.796C65.3553 110.796 67.1019 109.05 67.1019 106.895C67.1019 104.74 65.3553 102.994 63.2006 102.994C61.046 102.994 59.2994 104.74 59.2994 106.895Z" fill="#C92071"/>
    <path fill-rule="evenodd" clip-rule="evenodd" d="M59.2994 175.557C59.2994 177.712 61.046 179.459 63.2006 179.459C65.3553 179.459 67.1019 177.712 67.1019 175.557C67.1019 173.403 65.3553 171.656 63.2006 171.656C61.046 171.656 59.2994 173.403 59.2994 175.557Z" fill="#C92071"/>
    <path fill-rule="evenodd" clip-rule="evenodd" d="M207.548 3.90127C207.548 6.05589 209.294 7.80255 211.449 7.80255C213.604 7.80255 215.35 6.05589 215.35 3.90127C215.35 1.74666 213.604 0 211.449 0C209.294 0 207.548 1.74666 207.548 3.90127Z" fill="#C92071"/>
    <path fill-rule="evenodd" clip-rule="evenodd" d="M207.548 72.5637C207.548 74.7183 209.294 76.465 211.449 76.465C213.604 76.465 215.35 74.7183 215.35 72.5637C215.35 70.4091 213.604 68.6624 211.449 68.6624C209.294 68.6624 207.548 70.4091 207.548 72.5637Z" fill="#C92071"/>
    <path fill-rule="evenodd" clip-rule="evenodd" d="M207.548 141.226C207.548 143.381 209.294 145.127 211.449 145.127C213.604 145.127 215.35 143.381 215.35 141.226C215.35 139.071 213.604 137.325 211.449 137.325C209.294 137.325 207.548 139.071 207.548 141.226Z" fill="#C92071"/>
    <path fill-rule="evenodd" clip-rule="evenodd" d="M207.548 38.2325C207.548 40.3871 209.294 42.1338 211.449 42.1338C213.604 42.1338 215.35 40.3871 215.35 38.2325C215.35 36.0779 213.604 34.3312 211.449 34.3312C209.294 34.3312 207.548 36.0779 207.548 38.2325Z" fill="#C92071"/>
    <path fill-rule="evenodd" clip-rule="evenodd" d="M207.548 106.895C207.548 109.05 209.294 110.796 211.449 110.796C213.604 110.796 215.35 109.05 215.35 106.895C215.35 104.74 213.604 102.994 211.449 102.994C209.294 102.994 207.548 104.74 207.548 106.895Z" fill="#C92071"/>
    <path fill-rule="evenodd" clip-rule="evenodd" d="M207.548 175.557C207.548 177.712 209.294 179.459 211.449 179.459C213.604 179.459 215.35 177.712 215.35 175.557C215.35 173.403 213.604 171.656 211.449 171.656C209.294 171.656 207.548 173.403 207.548 175.557Z" fill="#C92071"/>
    <path fill-rule="evenodd" clip-rule="evenodd" d="M118.599 3.90127C118.599 6.05589 120.345 7.80255 122.5 7.80255C124.655 7.80255 126.401 6.05589 126.401 3.90127C126.401 1.74666 124.655 0 122.5 0C120.345 0 118.599 1.74666 118.599 3.90127Z" fill="#C92071"/>
    <path fill-rule="evenodd" clip-rule="evenodd" d="M118.599 72.5637C118.599 74.7183 120.345 76.465 122.5 76.465C124.655 76.465 126.401 74.7183 126.401 72.5637C126.401 70.4091 124.655 68.6624 122.5 68.6624C120.345 68.6624 118.599 70.4091 118.599 72.5637Z" fill="#C92071"/>
    <path fill-rule="evenodd" clip-rule="evenodd" d="M118.599 141.226C118.599 143.381 120.345 145.127 122.5 145.127C124.655 145.127 126.401 143.381 126.401 141.226C126.401 139.071 124.655 137.325 122.5 137.325C120.345 137.325 118.599 139.071 118.599 141.226Z" fill="#C92071"/>
    <path fill-rule="evenodd" clip-rule="evenodd" d="M118.599 38.2325C118.599 40.3871 120.345 42.1338 122.5 42.1338C124.655 42.1338 126.401 40.3871 126.401 38.2325C126.401 36.0779 124.655 34.3312 122.5 34.3312C120.345 34.3312 118.599 36.0779 118.599 38.2325Z" fill="#C92071"/>
    <path fill-rule="evenodd" clip-rule="evenodd" d="M118.599 106.895C118.599 109.05 120.345 110.796 122.5 110.796C124.655 110.796 126.401 109.05 126.401 106.895C126.401 104.74 124.655 102.994 122.5 102.994C120.345 102.994 118.599 104.74 118.599 106.895Z" fill="#C92071"/>
    <path fill-rule="evenodd" clip-rule="evenodd" d="M118.599 175.557C118.599 177.712 120.345 179.459 122.5 179.459C124.655 179.459 126.401 177.712 126.401 175.557C126.401 173.403 124.655 171.656 122.5 171.656C120.345 171.656 118.599 173.403 118.599 175.557Z" fill="#C92071"/>
    <path fill-rule="evenodd" clip-rule="evenodd" d="M29.6497 3.90127C29.6497 6.05589 31.3963 7.80255 33.5509 7.80255C35.7055 7.80255 37.4522 6.05589 37.4522 3.90127C37.4522 1.74666 35.7055 0 33.5509 0C31.3963 0 29.6497 1.74666 29.6497 3.90127Z" fill="#C92071"/>
    <path fill-rule="evenodd" clip-rule="evenodd" d="M29.6497 72.5637C29.6497 74.7183 31.3963 76.465 33.5509 76.465C35.7056 76.465 37.4522 74.7183 37.4522 72.5637C37.4522 70.4091 35.7056 68.6624 33.5509 68.6624C31.3963 68.6624 29.6497 70.4091 29.6497 72.5637Z" fill="#C92071"/>
    <path fill-rule="evenodd" clip-rule="evenodd" d="M29.6497 141.226C29.6497 143.381 31.3963 145.127 33.5509 145.127C35.7056 145.127 37.4522 143.381 37.4522 141.226C37.4522 139.071 35.7056 137.325 33.5509 137.325C31.3963 137.325 29.6497 139.071 29.6497 141.226Z" fill="#C92071"/>
    <path fill-rule="evenodd" clip-rule="evenodd" d="M29.6497 38.2325C29.6497 40.3871 31.3963 42.1338 33.5509 42.1338C35.7056 42.1338 37.4522 40.3871 37.4522 38.2325C37.4522 36.0779 35.7056 34.3312 33.5509 34.3312C31.3963 34.3312 29.6497 36.0779 29.6497 38.2325Z" fill="#C92071"/>
    <path fill-rule="evenodd" clip-rule="evenodd" d="M29.6497 106.895C29.6497 109.05 31.3963 110.796 33.5509 110.796C35.7056 110.796 37.4522 109.05 37.4522 106.895C37.4522 104.74 35.7056 102.994 33.5509 102.994C31.3963 102.994 29.6497 104.74 29.6497 106.895Z" fill="#C92071"/>
    <path fill-rule="evenodd" clip-rule="evenodd" d="M29.6497 175.557C29.6497 177.712 31.3963 179.459 33.5509 179.459C35.7056 179.459 37.4522 177.712 37.4522 175.557C37.4522 173.403 35.7056 171.656 33.5509 171.656C31.3963 171.656 29.6497 173.403 29.6497 175.557Z" fill="#C92071"/>
    <path fill-rule="evenodd" clip-rule="evenodd" d="M177.898 3.90127C177.898 6.05589 179.645 7.80255 181.799 7.80255C183.954 7.80255 185.701 6.05589 185.701 3.90127C185.701 1.74666 183.954 0 181.799 0C179.645 0 177.898 1.74666 177.898 3.90127Z" fill="#C92071"/>
    <path fill-rule="evenodd" clip-rule="evenodd" d="M177.898 72.5637C177.898 74.7183 179.645 76.465 181.799 76.465C183.954 76.465 185.701 74.7183 185.701 72.5637C185.701 70.4091 183.954 68.6624 181.799 68.6624C179.645 68.6624 177.898 70.4091 177.898 72.5637Z" fill="#C92071"/>
    <path fill-rule="evenodd" clip-rule="evenodd" d="M177.898 141.226C177.898 143.381 179.645 145.127 181.799 145.127C183.954 145.127 185.701 143.381 185.701 141.226C185.701 139.071 183.954 137.325 181.799 137.325C179.645 137.325 177.898 139.071 177.898 141.226Z" fill="#C92071"/>
    <path fill-rule="evenodd" clip-rule="evenodd" d="M177.898 38.2325C177.898 40.3871 179.645 42.1338 181.799 42.1338C183.954 42.1338 185.701 40.3871 185.701 38.2325C185.701 36.0779 183.954 34.3312 181.799 34.3312C179.645 34.3312 177.898 36.0779 177.898 38.2325Z" fill="#C92071"/>
    <path fill-rule="evenodd" clip-rule="evenodd" d="M177.898 106.895C177.898 109.05 179.645 110.796 181.799 110.796C183.954 110.796 185.701 109.05 185.701 106.895C185.701 104.74 183.954 102.994 181.799 102.994C179.645 102.994 177.898 104.74 177.898 106.895Z" fill="#C92071"/>
    <path fill-rule="evenodd" clip-rule="evenodd" d="M177.898 175.557C177.898 177.712 179.645 179.459 181.799 179.459C183.954 179.459 185.701 177.712 185.701 175.557C185.701 173.403 183.954 171.656 181.799 171.656C179.645 171.656 177.898 173.403 177.898 175.557Z" fill="#C92071"/>
    <path fill-rule="evenodd" clip-rule="evenodd" d="M88.949 3.90127C88.949 6.05589 90.6957 7.80255 92.8503 7.80255C95.0049 7.80255 96.7516 6.05589 96.7516 3.90127C96.7516 1.74666 95.0049 0 92.8503 0C90.6957 0 88.949 1.74666 88.949 3.90127Z" fill="#C92071"/>
    <path fill-rule="evenodd" clip-rule="evenodd" d="M88.949 72.5637C88.949 74.7183 90.6957 76.465 92.8503 76.465C95.0049 76.465 96.7516 74.7183 96.7516 72.5637C96.7516 70.4091 95.0049 68.6624 92.8503 68.6624C90.6957 68.6624 88.949 70.4091 88.949 72.5637Z" fill="#C92071"/>
    <path fill-rule="evenodd" clip-rule="evenodd" d="M88.949 141.226C88.949 143.381 90.6957 145.127 92.8503 145.127C95.0049 145.127 96.7516 143.381 96.7516 141.226C96.7516 139.071 95.0049 137.325 92.8503 137.325C90.6957 137.325 88.949 139.071 88.949 141.226Z" fill="#C92071"/>
    <path fill-rule="evenodd" clip-rule="evenodd" d="M88.949 38.2325C88.949 40.3871 90.6957 42.1338 92.8503 42.1338C95.0049 42.1338 96.7516 40.3871 96.7516 38.2325C96.7516 36.0779 95.0049 34.3312 92.8503 34.3312C90.6957 34.3312 88.949 36.0779 88.949 38.2325Z" fill="#C92071"/>
    <path fill-rule="evenodd" clip-rule="evenodd" d="M88.949 106.895C88.949 109.05 90.6957 110.796 92.8503 110.796C95.0049 110.796 96.7516 109.05 96.7516 106.895C96.7516 104.74 95.0049 102.994 92.8503 102.994C90.6957 102.994 88.949 104.74 88.949 106.895Z" fill="#C92071"/>
    <path fill-rule="evenodd" clip-rule="evenodd" d="M88.949 175.557C88.949 177.712 90.6957 179.459 92.8503 179.459C95.0049 179.459 96.7516 177.712 96.7516 175.557C96.7516 173.403 95.0049 171.656 92.8503 171.656C90.6957 171.656 88.949 173.403 88.949 175.557Z" fill="#C92071"/>
    <path fill-rule="evenodd" clip-rule="evenodd" d="M0 3.90127C0 6.05589 1.74666 7.80255 3.90127 7.80255C6.05589 7.80255 7.80255 6.05589 7.80255 3.90127C7.80255 1.74666 6.05589 0 3.90127 0C1.74666 0 0 1.74666 0 3.90127Z" fill="#C92071"/>
    <path fill-rule="evenodd" clip-rule="evenodd" d="M0 72.5637C0 74.7183 1.74666 76.465 3.90127 76.465C6.05589 76.465 7.80255 74.7183 7.80255 72.5637C7.80255 70.4091 6.05589 68.6624 3.90127 68.6624C1.74666 68.6624 0 70.4091 0 72.5637Z" fill="#C92071"/>
    <path fill-rule="evenodd" clip-rule="evenodd" d="M0 141.226C0 143.381 1.74666 145.127 3.90127 145.127C6.05589 145.127 7.80255 143.381 7.80255 141.226C7.80255 139.071 6.05589 137.325 3.90127 137.325C1.74666 137.325 0 139.071 0 141.226Z" fill="#C92071"/>
    <path fill-rule="evenodd" clip-rule="evenodd" d="M0 38.2325C0 40.3871 1.74666 42.1338 3.90127 42.1338C6.05589 42.1338 7.80255 40.3871 7.80255 38.2325C7.80255 36.0779 6.05589 34.3312 3.90127 34.3312C1.74666 34.3312 0 36.0779 0 38.2325Z" fill="#C92071"/>
    <path fill-rule="evenodd" clip-rule="evenodd" d="M0 106.895C0 109.05 1.74666 110.796 3.90127 110.796C6.05589 110.796 7.80255 109.05 7.80255 106.895C7.80255 104.74 6.05589 102.994 3.90127 102.994C1.74666 102.994 0 104.74 0 106.895Z" fill="#C92071"/>
    <path fill-rule="evenodd" clip-rule="evenodd" d="M0 175.557C0 177.712 1.74666 179.459 3.90127 179.459C6.05589 179.459 7.80255 177.712 7.80255 175.557C7.80255 173.403 6.05589 171.656 3.90127 171.656C1.74666 171.656 0 173.403 0 175.557Z" fill="#C92071"/>
</svg>
