<svg width="48" height="48" viewBox="0 0 48 48" fill="none"
    xmlns="http://www.w3.org/2000/svg">
    <path d="M24 48C37.25 48 48 37.25 48 24C48 10.75 37.25 0 24 0C10.75 0 0 10.75 0 24C0 37.25 10.75 48 24 48Z" fill="#F6AA1C"/>
    <path d="M22.0631 25.886L21.7653 30.074C22.1913 30.074 22.3758 29.891 22.5971 29.6712L24.5944 27.7625L28.733 30.7932C29.492 31.2162 30.0267 30.9935 30.2315 30.095L32.9481 17.366L32.9488 17.3653C33.1896 16.2433 32.5431 15.8046 31.8035 16.0798L15.8357 22.193C14.7459 22.616 14.7624 23.2235 15.6504 23.4988L19.7327 24.7685L29.2152 18.8353C29.6615 18.5398 30.0672 18.7033 29.7335 18.9988L22.0631 25.886Z" fill="#F9F9F9"/>
</svg>
