<svg width="48" height="48" viewBox="0 0 48 48" fill="none"
    xmlns="http://www.w3.org/2000/svg">
    <path d="M24 48C37.25 48 48 37.25 48 24C48 10.75 37.25 0 24 0C10.75 0 0 10.75 0 24C0 37.25 10.75 48 24 48Z" fill="#68AAF3"/>
    <path fill-rule="evenodd" clip-rule="evenodd" d="M24 16C21.83 16 21.56 16.0098 20.7 16.0498C17.79 16.1798 16.18 17.7902 16.05 20.7002C16.01 21.5602 16 21.83 16 24C16 26.17 16.01 26.4498 16.05 27.2998C16.18 30.1998 17.79 31.8202 20.7 31.9502C21.56 31.9902 21.83 32 24 32C26.17 32 26.45 31.9902 27.3 31.9502C30.2 31.8202 31.82 30.2098 31.95 27.2998C31.99 26.4498 32 26.17 32 24C32 21.83 31.99 21.5602 31.95 20.7002C31.82 17.8002 30.21 16.1798 27.3 16.0498C26.45 16.0098 26.17 16 24 16ZM24 17.4399C26.14 17.4399 26.39 17.4502 27.23 17.4902C29.4 17.5902 30.41 18.62 30.51 20.77C30.55 21.61 30.5601 21.86 30.5601 24C30.5601 26.14 30.55 26.39 30.51 27.23C30.41 29.38 29.4 30.4098 27.23 30.5098C26.39 30.5498 26.14 30.5601 24 30.5601C21.86 30.5601 21.61 30.5498 20.77 30.5098C18.59 30.4098 17.59 29.38 17.49 27.23C17.45 26.39 17.4399 26.14 17.4399 24C17.4399 21.86 17.45 21.61 17.49 20.77C17.59 18.61 18.6 17.5902 20.77 17.4902C21.61 17.4502 21.86 17.4399 24 17.4399ZM19.89 24C19.89 21.73 21.73 19.8901 24 19.8901C26.27 19.8901 28.11 21.73 28.11 24C28.11 26.27 26.27 28.1099 24 28.1099C21.73 28.1099 19.89 26.27 19.89 24ZM24 26.6699C22.53 26.6699 21.33 25.47 21.33 24C21.33 22.53 22.53 21.3301 24 21.3301C25.47 21.3301 26.67 22.53 26.67 24C26.67 25.47 25.47 26.6699 24 26.6699ZM27.3101 19.73C27.3101 19.2 27.74 18.77 28.27 18.77C28.8 18.77 29.23 19.2 29.23 19.73C29.23 20.26 28.8 20.6899 28.27 20.6899C27.74 20.6899 27.3101 20.26 27.3101 19.73Z" fill="#F9F9F9"/>
</svg>
