<svg width="48" height="48" viewBox="0 0 48 48" fill="none"
    xmlns="http://www.w3.org/2000/svg">
    <path d="M24 48C37.25 48 48 37.25 48 24C48 10.75 37.25 0 24 0C10.75 0 0 10.75 0 24C0 37.25 10.75 48 24 48Z" fill="#E17094"/>
    <path d="M32 19.54C31.41 19.8 30.78 19.9801 30.11 20.0601C30.79 19.6501 31.3101 19.0102 31.5601 18.2402C30.9201 18.6202 30.22 18.89 29.47 19.04C28.88 18.4 28.02 18 27.08 18C24.96 18 23.4 19.9798 23.88 22.0298C21.15 21.8898 18.73 20.5901 17.11 18.6001C16.25 20.0801 16.67 22.01 18.13 22.98C17.59 22.97 17.09 22.8198 16.65 22.5698C16.61 24.0898 17.7 25.5201 19.28 25.8301C18.82 25.9601 18.31 25.9901 17.8 25.8901C18.21 27.1901 19.43 28.1399 20.86 28.1699C19.48 29.2499 17.74 29.7298 16 29.5298C17.45 30.4598 19.18 31 21.03 31C27.13 31 30.57 25.8602 30.36 21.2402C31 20.7802 31.56 20.2 32 19.54Z" fill="#F9F9F9"/>
</svg>
